<svg xmlns="http://www.w3.org/2000/svg" viewBox="0 0 621.21 217.32"><defs><style>.cls-1{fill:#86adff;}.cls-2,.cls-3,.cls-5{fill:#6785c8;}.cls-3{font-size:90px;font-family:Lato-Bold, Lato;font-weight:700;}.cls-4{letter-spacing:-0.03em;}.cls-5{font-size:43.09px;font-family:Lato-Light, Lato;font-weight:300;letter-spacing:0.2em;}</style></defs><g id="Camada_2" data-name="Camada 2"><g id="Camada_1-2" data-name="Camada 1"><path class="cls-1" d="M79.91,108.66H23.38a11.63,11.63,0,0,0-8.18,19.9L99.46,212a18.45,18.45,0,0,0,13,5.33h70.14a2.92,2.92,0,0,0,2.05-5Z"/><polygon class="cls-2" points="79.91 108.66 55.87 168.83 37.5 150.64 79.91 108.66"/><path class="cls-1" d="M37.5,150.64l-34-33.71a11.64,11.64,0,0,1,0-16.54l96-95.06a18.45,18.45,0,0,1,13-5.33h70.26a2.87,2.87,0,0,1,2,4.9Z"/><path class="cls-1" d="M541.3,108.66h56.52A11.63,11.63,0,0,0,606,88.76L521.74,5.33a18.45,18.45,0,0,0-13-5.33H438.64a2.92,2.92,0,0,0-2.05,5Z"/><path class="cls-1" d="M583.71,66.68l34,33.71a11.64,11.64,0,0,1,0,16.54l-96,95.06a18.45,18.45,0,0,1-13,5.33H438.51a2.86,2.86,0,0,1-2-4.9Z"/><polygon class="cls-2" points="541.3 108.66 565.34 48.49 583.71 66.68 541.3 108.66"/><text class="cls-3" transform="translate(147.75 135.66)"><tspan class="cls-4">D</tspan><tspan x="64.98" y="0">ANIEL</tspan></text><text class="cls-5" transform="translate(216.53 184.54)">VIEIRA</text></g></g></svg>